<?xml version="1.0" standalone="no"?>
<!DOCTYPE svg PUBLIC "-//W3C//DTD SVG 20010904//EN"
 "http://www.w3.org/TR/2001/REC-SVG-20010904/DTD/svg10.dtd">
<svg version="1.0" xmlns="http://www.w3.org/2000/svg"
 width="16.000000pt" height="16.000000pt" viewBox="0 0 16.000000 16.000000"
 preserveAspectRatio="xMidYMid meet">
<metadata>
Created by potrace 1.11, written by Peter Selinger 2001-2013
</metadata>
<g transform="translate(0.000000,16.000000) scale(0.004178,-0.004178)"
fill="#000000" stroke="none">
<path d="M3411 2186 c0 -793 -1 -1485 -1 -1538 l0 -98 -145 0 -145 0 0 1170
c0 644 -3 1170 -7 1171 -41 4 -1162 1 -1169 -4 -5 -3 -9 -478 -9 -1167 0 -658
-4 -1164 -9 -1167 -12 -8 -891 -7 -903 0 -7 4 -11 162 -11 444 0 241 -1 446
-1 456 -1 15 -16 17 -170 17 l-170 0 2 -612 2 -613 808 0 807 0 1 65 c0 36 0
567 1 1181 l1 1117 233 -1 c163 0 234 -3 235 -11 0 -6 1 -537 2 -1181 l2
-1170 498 0 c327 0 497 3 498 10 1 5 2 765 3 1688 1 1483 -1 1678 -14 1681 -8
3 -88 4 -177 4 l-162 -1 0 -1441z"/>
<path d="M63 2090 c-18 -5 -18 -42 -17 -915 1 -501 2 -915 3 -920 1 -12 335
-14 347 -2 4 4 7 355 7 781 l0 773 441 -1 441 -1 1 -510 c1 -280 2 -512 3
-515 0 -3 80 -5 176 -5 149 0 175 2 176 15 5 81 1 1292 -4 1297 -8 7 -1547 11
-1574 3z"/>
</g>
</svg>
